<svg width="64" height="52" viewBox="0 0 64 52" fill="none" xmlns="http://www.w3.org/2000/svg">
<circle cx="3.35718" cy="12.5" r="11.5" fill="#0E67DD" stroke="#E7F0FC" stroke-width="2"/>
<path d="M24.7143 47.0002C24.7143 44.1956 24.1619 41.4184 23.0886 38.8272C22.0153 36.236 20.4421 33.8816 18.4589 31.8985C16.4757 29.9153 14.1213 28.3421 11.5302 27.2688C8.939 26.1955 6.1618 28.9288 3.35714 28.9288C0.552483 28.9288 -2.22471 26.1955 -4.81588 27.2688C-7.40705 28.3421 -9.76144 29.9153 -11.7446 31.8985C-13.7278 33.8816 -15.301 36.236 -16.3743 38.8272C-17.4476 41.4184 -18 44.1956 -18 47.0002L3.35714 47.0002H24.7143Z" fill="#0E67DD" stroke="#E7F0FC" stroke-width="2"/>
<circle cx="62.3572" cy="14.5" r="11.5" fill="#0E67DD" stroke="#E7F0FC" stroke-width="2"/>
<path d="M83.7143 49.0002C83.7143 46.1956 83.1619 43.4184 82.0886 40.8272C81.0153 38.236 79.4421 35.8816 77.4589 33.8985C75.4757 31.9153 73.1213 30.3421 70.5302 29.2688C67.939 28.1955 65.1618 30.9288 62.3571 30.9288C59.5525 30.9288 56.7753 28.1955 54.1841 29.2688C51.5929 30.3421 49.2386 31.9153 47.2554 33.8985C45.2722 35.8816 43.699 38.236 42.6257 40.8272C41.5524 43.4184 41 46.1956 41 49.0002L62.3571 49.0002H83.7143Z" fill="#0E67DD" stroke="#E7F0FC" stroke-width="2"/>
<circle cx="32.3572" cy="18.5" r="11.5" fill="#0E67DD" stroke="#E7F0FC" stroke-width="2"/>
<path d="M53.7143 55.0002H55.7143V53.0002C55.7143 49.9329 55.1101 46.8957 53.9363 44.0618C52.7625 41.228 51.042 38.6532 48.8731 36.4842C46.7042 34.3153 44.1294 32.5949 41.2955 31.421C39.1736 30.5421 37.1167 31.3035 35.779 31.8401C35.52 31.9441 35.2853 32.0415 35.0643 32.1333C34.6175 32.3188 34.2264 32.4812 33.8017 32.6275C33.2043 32.8333 32.7433 32.9288 32.3571 32.9288C31.971 32.9288 31.51 32.8333 30.9126 32.6275C30.4879 32.4812 30.0967 32.3188 29.65 32.1333C29.429 32.0415 29.1943 31.9441 28.9353 31.8401C27.5976 31.3035 25.5406 30.5421 23.4188 31.421C20.5849 32.5949 18.0101 34.3153 15.8411 36.4842C13.6722 38.6532 11.9518 41.228 10.778 44.0618C9.60415 46.8957 9 49.9329 9 53.0002L9 55.0002H11L32.3571 55.0002H53.7143Z" fill="#0E67DD" stroke="#E7F0FC" stroke-width="4"/>
</svg>
