<svg width="381" height="340" viewBox="0 0 381 340" fill="none" xmlns="http://www.w3.org/2000/svg">
<path d="M327.892 188.272C321.785 194.407 317.109 201.81 314.196 209.954C311.282 218.099 310.204 226.785 311.037 235.394L310.747 235.104C311.605 245.238 310.235 255.434 306.737 264.986C303.239 274.535 297.696 283.208 290.494 290.4C283.292 297.589 274.605 303.125 265.038 306.616C255.473 310.109 245.259 311.476 235.111 310.62L235.401 310.91C223.261 309.782 211.068 312.419 200.483 318.463C189.9 324.507 181.44 333.663 176.26 344.683C171.079 355.703 169.427 368.049 171.532 380.041C173.638 392.031 179.395 403.082 188.021 411.686C196.646 420.29 207.719 426.028 219.73 428.118C231.743 430.209 244.107 428.549 255.14 423.367C266.173 418.184 275.335 409.731 281.379 399.158C287.423 388.585 290.054 376.41 288.914 364.289L289.22 364.579C288.363 354.447 289.731 344.249 293.229 334.697C296.727 325.148 302.272 316.475 309.473 309.284C316.676 302.094 325.362 296.558 334.927 293.067C344.494 289.574 354.707 288.207 364.856 289.063L364.55 288.773C374.467 289.663 384.449 288.04 393.571 284.053C402.691 280.066 410.657 273.845 416.729 265.967C422.801 258.089 426.784 248.806 428.305 238.983C429.828 229.158 428.841 219.11 425.438 209.766C422.035 200.424 416.325 192.09 408.837 185.538C401.349 178.985 392.325 174.426 382.602 172.283C372.879 170.14 362.771 170.481 353.216 173.275C343.661 176.071 334.968 181.229 327.941 188.272H327.892Z" fill="white"/>
<path d="M327.892 188.272C321.785 194.407 317.109 201.81 314.196 209.954C311.282 218.099 310.204 226.785 311.037 235.394L310.747 235.104C311.605 245.238 310.235 255.434 306.737 264.986C303.239 274.535 297.696 283.208 290.494 290.4C283.292 297.589 274.605 303.125 265.038 306.616C255.473 310.109 245.259 311.476 235.111 310.62L235.401 310.91C223.261 309.782 211.068 312.419 200.483 318.463C189.9 324.507 181.44 333.663 176.26 344.683C171.079 355.703 169.427 368.049 171.532 380.041C173.638 392.031 179.395 403.082 188.021 411.686C196.646 420.29 207.719 426.028 219.73 428.118C231.743 430.209 244.107 428.549 255.14 423.367C266.173 418.184 275.335 409.731 281.379 399.158C287.423 388.585 290.054 376.41 288.914 364.289L289.22 364.579C288.363 354.447 289.731 344.249 293.229 334.697C296.727 325.148 302.272 316.475 309.473 309.284C316.676 302.094 325.362 296.558 334.927 293.067C344.494 289.574 354.707 288.207 364.856 289.063L364.55 288.773C374.467 289.663 384.449 288.04 393.571 284.053C402.691 280.066 410.657 273.845 416.729 265.967C422.801 258.089 426.784 248.806 428.305 238.983C429.828 229.158 428.841 219.11 425.438 209.766C422.035 200.424 416.325 192.09 408.837 185.538C401.349 178.985 392.325 174.426 382.602 172.283C372.879 170.14 362.771 170.481 353.216 173.275C343.661 176.071 334.968 181.229 327.941 188.272H327.892Z" fill="#292C38"/>
<path d="M209.022 272.979L208.716 272.689C217.342 273.556 226.053 272.499 234.221 269.594C242.387 266.688 249.805 262.008 255.938 255.89C262.069 249.772 266.765 242.368 269.68 234.217C272.596 226.065 273.661 217.369 272.799 208.756L273.106 209.046C272.248 198.912 273.618 188.715 277.115 179.164C280.613 169.614 286.158 160.941 293.359 153.75C300.561 146.56 309.248 141.025 318.813 137.534C328.38 134.04 338.592 132.674 348.742 133.529L348.436 133.24C360.578 134.379 372.774 131.749 383.364 125.712C393.955 119.675 402.421 110.523 407.61 99.5052C412.798 88.4873 414.456 76.1394 412.358 64.1457C410.26 52.1521 404.508 41.0969 395.884 32.4876C387.261 23.8785 376.188 18.1345 364.176 16.0396C352.163 13.9445 339.796 15.6001 328.76 20.7807C317.724 25.9611 308.558 34.4145 302.511 44.9875C296.464 55.5605 293.831 67.7385 294.972 79.8603L294.682 79.5547C295.54 89.6882 294.174 99.8869 290.677 109.439C287.181 118.99 281.636 127.665 274.435 134.857C267.232 142.046 258.544 147.582 248.977 151.073C239.409 154.564 229.195 155.928 219.045 155.071L219.335 155.377C210.709 154.509 201.997 155.566 193.831 158.472C185.664 161.376 178.246 166.057 172.113 172.176C165.98 178.294 161.286 185.697 158.37 193.849C155.455 202.001 154.39 210.696 155.252 219.31L154.962 219.02C155.816 229.152 154.444 239.349 150.946 248.898C147.446 258.447 141.903 267.119 134.702 274.309C127.5 281.499 118.815 287.033 109.25 290.527C99.6859 294.02 89.4734 295.389 79.3249 294.536L79.615 294.826C67.4738 293.687 55.2764 296.316 44.6864 302.353C34.0966 308.391 25.6298 317.542 20.4411 328.561C15.2523 339.579 13.5939 351.926 15.6923 363.92C17.7908 375.913 23.5439 386.969 32.1667 395.578C40.7897 404.188 51.8626 409.931 63.8753 412.026C75.8881 414.12 88.2557 412.465 99.2913 407.285C110.327 402.104 119.493 393.652 125.54 383.079C131.587 372.504 134.22 360.328 133.079 348.205L133.386 348.495C132.528 338.361 133.898 328.165 137.396 318.613C140.893 309.064 146.438 300.391 153.639 293.199C160.841 286.01 169.528 280.474 179.093 276.983C188.66 273.49 198.872 272.123 209.022 272.979Z" fill="white"/>
<path d="M209.022 272.979L208.716 272.689C217.342 273.556 226.053 272.499 234.221 269.594C242.387 266.688 249.805 262.008 255.938 255.89C262.069 249.772 266.765 242.368 269.68 234.217C272.596 226.065 273.661 217.369 272.799 208.756L273.106 209.046C272.248 198.912 273.618 188.715 277.115 179.164C280.613 169.614 286.158 160.941 293.359 153.75C300.561 146.56 309.248 141.025 318.813 137.534C328.38 134.04 338.592 132.674 348.742 133.529L348.436 133.24C360.578 134.379 372.774 131.749 383.364 125.712C393.955 119.675 402.421 110.523 407.61 99.5052C412.798 88.4873 414.456 76.1394 412.358 64.1457C410.26 52.1521 404.508 41.0969 395.884 32.4876C387.261 23.8785 376.188 18.1345 364.176 16.0396C352.163 13.9445 339.796 15.6001 328.76 20.7807C317.724 25.9611 308.558 34.4145 302.511 44.9875C296.464 55.5605 293.831 67.7385 294.972 79.8603L294.682 79.5547C295.54 89.6882 294.174 99.8869 290.677 109.439C287.181 118.99 281.636 127.665 274.435 134.857C267.232 142.046 258.544 147.582 248.977 151.073C239.409 154.564 229.195 155.928 219.045 155.071L219.335 155.377C210.709 154.509 201.997 155.566 193.831 158.472C185.664 161.376 178.246 166.057 172.113 172.176C165.98 178.294 161.286 185.697 158.37 193.849C155.455 202.001 154.39 210.696 155.252 219.31L154.962 219.02C155.816 229.152 154.444 239.349 150.946 248.898C147.446 258.447 141.903 267.119 134.702 274.309C127.5 281.499 118.815 287.033 109.25 290.527C99.6859 294.02 89.4734 295.389 79.3249 294.536L79.615 294.826C67.4738 293.687 55.2764 296.316 44.6864 302.353C34.0966 308.391 25.6298 317.542 20.4411 328.561C15.2523 339.579 13.5939 351.926 15.6923 363.92C17.7908 375.913 23.5439 386.969 32.1667 395.578C40.7897 404.188 51.8626 409.931 63.8753 412.026C75.8881 414.12 88.2557 412.465 99.2913 407.285C110.327 402.104 119.493 393.652 125.54 383.079C131.587 372.504 134.22 360.328 133.079 348.205L133.386 348.495C132.528 338.361 133.898 328.165 137.396 318.613C140.893 309.064 146.438 300.391 153.639 293.199C160.841 286.01 169.528 280.474 179.093 276.983C188.66 273.49 198.872 272.123 209.022 272.979Z" fill="#292C38"/>
<path d="M101.03 240.69C107.137 234.557 111.813 227.153 114.724 219.008C117.634 210.863 118.708 202.175 117.868 193.568L118.174 193.858C117.317 183.723 118.686 173.521 122.186 163.968C125.686 154.415 131.233 145.741 138.439 138.55C145.645 131.359 154.335 125.825 163.905 122.334C173.474 118.844 183.692 117.481 193.843 118.342L193.537 118.052C205.674 119.187 217.867 116.557 228.452 110.52C239.037 104.484 247.498 95.3341 252.685 84.3196C257.87 73.3049 259.527 60.9615 257.429 48.9723C255.331 36.9832 249.578 25.9321 240.959 17.3261C232.34 8.72009 221.27 2.97803 209.262 0.883069C197.255 -1.21205 184.891 0.442101 173.86 5.61949C162.827 10.7969 153.663 19.2457 147.617 29.8138C141.57 40.3819 138.935 52.5549 140.073 64.6726L139.783 64.383C140.64 74.516 139.27 84.7135 135.772 94.2639C132.274 103.814 126.731 112.487 119.529 119.678C112.327 126.869 103.64 132.403 94.0745 135.895C84.5089 139.388 74.2952 140.755 64.1461 139.899L64.4362 140.189C54.5194 139.301 44.5386 140.927 35.4187 144.915C26.2988 148.904 18.3347 155.126 12.2646 163.006C6.19449 170.884 2.21478 180.167 0.69399 189.99C-0.826639 199.815 0.160956 209.864 3.56525 219.204C6.96954 228.546 12.6806 236.878 20.1691 243.429C27.6575 249.982 36.681 254.54 46.4036 256.682C56.126 258.824 66.2328 258.481 75.7876 255.687C85.3423 252.891 94.0355 247.733 101.062 240.69H101.03Z" fill="white"/>
<path d="M101.03 240.69C107.137 234.557 111.813 227.153 114.724 219.008C117.634 210.863 118.708 202.175 117.868 193.568L118.174 193.858C117.317 183.723 118.686 173.521 122.186 163.968C125.686 154.415 131.233 145.741 138.439 138.55C145.645 131.359 154.335 125.825 163.905 122.334C173.474 118.844 183.692 117.481 193.843 118.342L193.537 118.052C205.674 119.187 217.867 116.557 228.452 110.52C239.037 104.484 247.498 95.3341 252.685 84.3196C257.87 73.3049 259.527 60.9615 257.429 48.9723C255.331 36.9832 249.578 25.9321 240.959 17.3261C232.34 8.72009 221.27 2.97803 209.262 0.883069C197.255 -1.21205 184.891 0.442101 173.86 5.61949C162.827 10.7969 153.663 19.2457 147.617 29.8138C141.57 40.3819 138.935 52.5549 140.073 64.6726L139.783 64.383C140.64 74.516 139.27 84.7135 135.772 94.2639C132.274 103.814 126.731 112.487 119.529 119.678C112.327 126.869 103.64 132.403 94.0745 135.895C84.5089 139.388 74.2952 140.755 64.1461 139.899L64.4362 140.189C54.5194 139.301 44.5386 140.927 35.4187 144.915C26.2988 148.904 18.3347 155.126 12.2646 163.006C6.19449 170.884 2.21478 180.167 0.69399 189.99C-0.826639 199.815 0.160956 209.864 3.56525 219.204C6.96954 228.546 12.6806 236.878 20.1691 243.429C27.6575 249.982 36.681 254.54 46.4036 256.682C56.126 258.824 66.2328 258.481 75.7876 255.687C85.3423 252.891 94.0355 247.733 101.062 240.69H101.03Z" fill="#292C38"/>
</svg>
